<svg width="24" height="24" viewBox="0 0 24 24" fill="none" xmlns="http://www.w3.org/2000/svg">
    <path d="M12 13.85C11.87 13.85 11.74 13.82 11.63 13.75C11.27 13.54 11.15 13.08 11.35 12.73L12.2 11.25H11.36C10.86 11.25 10.45 11.03 10.23 10.66C10.01 10.28 10.03 9.81999 10.28 9.37999L11.35 7.51999C11.56 7.15999 12.02 7.03999 12.37 7.23999C12.73 7.44999 12.85 7.90999 12.65 8.25999L11.8 9.74999H12.64C13.14 9.74999 13.55 9.96999 13.77 10.34C13.99 10.72 13.97 11.18 13.72 11.62L12.65 13.48C12.51 13.72 12.26 13.85 12 13.85Z" fill="#414346"/>
    <path d="M14.77 19.75H9.26C8.82 19.75 8.25999 19.7 7.89 19.32C7.52999 18.95 7.54 18.49 7.55 18.18V17.29C5.03 15.61 3.37 12.69 3.37 9.90999C3.37 7.27999 4.55 4.81999 6.6 3.16999C8.64999 1.51999 11.34 0.899986 13.97 1.47999C16.47 2.02999 18.63 3.69999 19.75 5.94999C21.92 10.32 19.83 15.05 16.49 17.3V18.05C16.5 18.34 16.51 18.87 16.1 19.29C15.79 19.59 15.35 19.75 14.77 19.75ZM9.04 18.24C9.09 18.24 9.16 18.25 9.25 18.25H14.77C14.87 18.25 14.94 18.24 14.98 18.23C14.98 18.2 14.98 18.16 14.98 18.13V16.87C14.98 16.61 15.12 16.36 15.34 16.23C18.3 14.44 20.26 10.35 18.39 6.59999C17.47 4.74999 15.69 3.37999 13.63 2.92999C11.45 2.44999 9.22 2.95999 7.52 4.32999C5.82 5.69999 4.85 7.72999 4.85 9.90999C4.85 12.69 6.77 15.09 8.67 16.24C8.9 16.38 9.02999 16.62 9.02999 16.88V18.23C9.04 18.23 9.04 18.23 9.04 18.24Z" fill="#414346"/>
    <path d="M15.5 22.75C15.43 22.75 15.36 22.74 15.29 22.72C13.13 22.1 10.86 22.1 8.70001 22.72C8.30001 22.83 7.89001 22.6 7.77001 22.2C7.65001 21.8 7.89001 21.39 8.29001 21.27C10.71 20.58 13.28 20.58 15.7 21.27C16.1 21.38 16.33 21.8 16.22 22.2C16.13 22.54 15.83 22.75 15.5 22.75Z" fill="#414346"/>
</svg>
