<svg width="32" height="32" viewBox="0 0 32 32" fill="none" xmlns="http://www.w3.org/2000/svg">
    <path d="M29.3332 22.3199V6.22659C29.3332 4.62659 28.0265 3.43993 26.4398 3.57326H26.3598C23.5598 3.81326 19.3065 5.23993 16.9332 6.73326L16.7065 6.87993C16.3198 7.11993 15.6798 7.11993 15.2932 6.87993L14.9598 6.67993C12.5865 5.19993 8.3465 3.78659 5.5465 3.55993C3.95984 3.42659 2.6665 4.62659 2.6665 6.21326V22.3199C2.6665 23.5999 3.7065 24.7999 4.9865 24.9599L5.37317 25.0133C8.2665 25.3999 12.7332 26.8666 15.2932 28.2666L15.3465 28.2933C15.7065 28.4933 16.2798 28.4933 16.6265 28.2933C19.1865 26.8799 23.6665 25.3999 26.5732 25.0133L27.0132 24.9599C28.2932 24.7999 29.3332 23.5999 29.3332 22.3199Z" stroke="#2672E7" stroke-width="1.5" stroke-linecap="round" stroke-linejoin="round"/>
    <path opacity="0.4" d="M16 7.32007V27.3201" stroke="#2672E7" stroke-width="1.5" stroke-linecap="round" stroke-linejoin="round"/>
    <path opacity="0.4" d="M10.3335 11.3201H7.3335" stroke="#2672E7" stroke-width="1.5" stroke-linecap="round" stroke-linejoin="round"/>
    <path opacity="0.4" d="M11.3335 15.3201H7.3335" stroke="#2672E7" stroke-width="1.5" stroke-linecap="round" stroke-linejoin="round"/>
</svg>
