<svg width="14" height="14" viewBox="0 0 14 14" fill="none" xmlns="http://www.w3.org/2000/svg">
    <path d="M12.25 13.2708H1.75C1.51083 13.2708 1.3125 13.0724 1.3125 12.8333C1.3125 12.5941 1.51083 12.3958 1.75 12.3958H12.25C12.4892 12.3958 12.6875 12.5941 12.6875 12.8333C12.6875 13.0724 12.4892 13.2708 12.25 13.2708Z" fill="#7455F7"/>
    <path d="M3.26665 11.5209H2.33333C1.77333 11.5209 1.3125 11.0601 1.3125 10.5001V5.47176C1.3125 4.91176 1.77333 4.45093 2.33333 4.45093H3.26665C3.82665 4.45093 4.28749 4.91176 4.28749 5.47176V10.5001C4.28749 11.0601 3.82665 11.5209 3.26665 11.5209ZM2.33333 5.32009C2.25167 5.32009 2.1875 5.38426 2.1875 5.46592V10.5001C2.1875 10.5818 2.25167 10.6459 2.33333 10.6459H3.26665C3.34832 10.6459 3.41249 10.5818 3.41249 10.5001V5.47176C3.41249 5.39009 3.34832 5.32593 3.26665 5.32593H2.33333V5.32009Z" fill="#7455F7"/>
    <path d="M7.46685 11.5209H6.53353C5.97353 11.5209 5.5127 11.0601 5.5127 10.5001V3.61092C5.5127 3.05092 5.97353 2.59009 6.53353 2.59009H7.46685C8.02685 2.59009 8.48768 3.05092 8.48768 3.61092V10.5001C8.48768 11.0601 8.02685 11.5209 7.46685 11.5209ZM6.53353 3.46509C6.45186 3.46509 6.3877 3.52925 6.3877 3.61092V10.5001C6.3877 10.5818 6.45186 10.6459 6.53353 10.6459H7.46685C7.54851 10.6459 7.61268 10.5818 7.61268 10.5001V3.61092C7.61268 3.52925 7.54851 3.46509 7.46685 3.46509H6.53353Z" fill="#7455F7"/>
    <path d="M11.6666 11.5209H10.7332C10.1732 11.5209 9.7124 11.0601 9.7124 10.5001V1.75008C9.7124 1.19008 10.1732 0.729248 10.7332 0.729248H11.6666C12.2266 0.729248 12.6874 1.19008 12.6874 1.75008V10.5001C12.6874 11.0601 12.2266 11.5209 11.6666 11.5209ZM10.7332 1.60425C10.6516 1.60425 10.5874 1.66841 10.5874 1.75008V10.5001C10.5874 10.5817 10.6516 10.6459 10.7332 10.6459H11.6666C11.7482 10.6459 11.8124 10.5817 11.8124 10.5001V1.75008C11.8124 1.66841 11.7482 1.60425 11.6666 1.60425H10.7332Z" fill="#7455F7"/>
</svg>
