<svg width="14" height="14" viewBox="0 0 14 14" fill="none" xmlns="http://www.w3.org/2000/svg">
    <path d="M9.22254 11.7717C9.07088 11.7717 8.91337 11.7659 8.74421 11.7484C8.44087 11.725 8.09671 11.6667 7.74088 11.5792L6.76088 11.3459C4.07171 10.7101 3.19088 9.28672 3.82088 6.60338L4.39254 4.15922C4.52088 3.60505 4.67254 3.15588 4.85921 2.78255C5.86254 0.711716 7.78171 0.898383 9.14671 1.21922L10.1209 1.44672C11.4859 1.76755 12.3492 2.27505 12.8334 3.05088C13.3117 3.82672 13.3875 4.82422 13.0667 6.18922L12.495 8.62755C11.9934 10.7626 10.9492 11.7717 9.22254 11.7717ZM7.65338 1.89588C6.67921 1.89588 6.06088 2.29838 5.64671 3.16172C5.49504 3.47672 5.36088 3.86755 5.24421 4.35755L4.67254 6.80172C4.15338 9.00672 4.75421 9.96922 6.95921 10.4942L7.93921 10.7275C8.25421 10.8034 8.55171 10.85 8.82004 10.8734C10.4067 11.0309 11.1942 10.3367 11.6375 8.42922L12.2092 5.99088C12.4717 4.86505 12.4367 4.07755 12.0867 3.51172C11.7367 2.94588 11.0484 2.56088 9.91671 2.29838L8.94254 2.07088C8.45837 1.95422 8.02671 1.89588 7.65338 1.89588Z" fill="#7455F7"/>
    <path d="M4.85928 12.9792C3.36011 12.9792 2.40344 12.0809 1.79094 10.1851L1.04428 7.88089C0.215945 5.31423 0.956778 3.86756 3.51178 3.03923L4.43344 2.74173C4.73678 2.64839 4.96428 2.58423 5.16844 2.54923C5.33761 2.51423 5.50094 2.57839 5.60011 2.71256C5.69928 2.84673 5.71678 3.02173 5.64678 3.17339C5.49511 3.48256 5.36094 3.87339 5.25011 4.36339L4.67844 6.80756C4.15928 9.01256 4.76011 9.97506 6.96511 10.5001L7.94511 10.7334C8.26011 10.8092 8.55761 10.8559 8.82594 10.8792C9.01261 10.8967 9.16428 11.0251 9.21678 11.2059C9.26344 11.3867 9.19344 11.5734 9.04178 11.6784C8.65678 11.9409 8.17261 12.1626 7.56011 12.3609L6.63844 12.6642C5.96761 12.8742 5.38428 12.9792 4.85928 12.9792ZM4.53844 3.62839L3.78594 3.87339C1.70344 4.54423 1.20761 5.52423 1.87844 7.61256L2.62511 9.91673C3.30178 11.9992 4.28178 12.5009 6.36428 11.8301L7.28594 11.5267C7.32094 11.5151 7.35011 11.5034 7.38511 11.4917L6.76678 11.3459C4.07761 10.7101 3.19678 9.28673 3.82678 6.60339L4.39844 4.15923C4.43928 3.97256 4.48594 3.79173 4.53844 3.62839Z" fill="#7455F7"/>
    <path d="M10.2023 6.13095C10.1673 6.13095 10.1323 6.12511 10.0915 6.11928L7.2623 5.40178C7.02897 5.34345 6.88897 5.10428 6.9473 4.87095C7.00564 4.63761 7.2448 4.49761 7.47814 4.55595L10.3073 5.27345C10.5406 5.33178 10.6806 5.57095 10.6223 5.80428C10.5756 5.99678 10.3948 6.13095 10.2023 6.13095Z" fill="#7455F7"/>
    <path d="M8.49349 8.10244C8.45849 8.10244 8.42349 8.0966 8.38266 8.09077L6.68516 7.6591C6.45182 7.60077 6.31182 7.3616 6.37016 7.12827C6.42849 6.89494 6.66766 6.75494 6.90099 6.81327L8.59849 7.24494C8.83182 7.30327 8.97182 7.54244 8.91349 7.77577C8.86682 7.9741 8.69182 8.10244 8.49349 8.10244Z" fill="#7455F7"/>
</svg>
