<svg width="32" height="32" viewBox="0 0 32 32" fill="none" xmlns="http://www.w3.org/2000/svg">
    <path d="M13.3332 22.6H8.27984C3.7865 22.6 2.6665 21.48 2.6665 16.9866V8.98662C2.6665 4.49329 3.7865 3.37329 8.27984 3.37329H22.3198C26.8132 3.37329 27.9332 4.49329 27.9332 8.98662" stroke="#2672E7" stroke-width="1.5" stroke-linecap="round" stroke-linejoin="round"/>
    <path d="M13.3335 28.6268V22.6001" stroke="#2672E7" stroke-width="1.5" stroke-linecap="round" stroke-linejoin="round"/>
    <path opacity="0.4" d="M2.6665 17.2666H13.3332" stroke="#2672E7" stroke-width="1.5" stroke-linecap="round" stroke-linejoin="round"/>
    <path d="M8.98682 28.6267H13.3335" stroke="#2672E7" stroke-width="1.5" stroke-linecap="round" stroke-linejoin="round"/>
    <path d="M29.3332 17.0668V24.6801C29.3332 27.8401 28.5465 28.6268 25.3865 28.6268H20.6532C17.4932 28.6268 16.7065 27.8401 16.7065 24.6801V17.0668C16.7065 13.9068 17.4932 13.1201 20.6532 13.1201H25.3865C28.5465 13.1201 29.3332 13.9068 29.3332 17.0668Z" stroke="#2672E7" stroke-width="1.5" stroke-linecap="round" stroke-linejoin="round"/>
    <path opacity="0.4" d="M22.9928 24.3334H23.0048" stroke="#2672E7" stroke-width="2" stroke-linecap="round" stroke-linejoin="round"/>
</svg>
