<svg width="32" height="32" viewBox="0 0 32 32" fill="none" xmlns="http://www.w3.org/2000/svg">
    <path opacity="0.4" d="M15.6532 23.6666H23.5465C23.4265 23.7733 23.3065 23.8667 23.1865 23.9733L17.4932 28.24C15.6132 29.64 12.5465 29.64 10.6532 28.24L4.94651 23.9733C3.69318 23.04 2.6665 20.9733 2.6665 19.4133V9.53331C2.6665 7.90664 3.90651 6.10664 5.42651 5.53331L12.0665 3.03998C13.1598 2.62665 14.9732 2.62665 16.0665 3.03998L22.6932 5.53331C23.9598 6.01331 25.0398 7.34665 25.3732 8.70665H15.6398C15.3465 8.70665 15.0798 8.71999 14.8265 8.71999C12.3598 8.86666 11.7198 9.75997 11.7198 12.5733V19.8133C11.7332 22.88 12.5198 23.6666 15.6532 23.6666Z" stroke="#2672E7" stroke-width="1.5" stroke-linecap="round" stroke-linejoin="round"/>
    <path d="M11.7334 14.96H29.3334" stroke="#2672E7" stroke-width="1.5" stroke-miterlimit="10" stroke-linecap="round" stroke-linejoin="round"/>
    <path d="M29.3334 12.5599V19.9599C29.3067 22.9199 28.4934 23.6532 25.4134 23.6532H15.6534C12.5201 23.6532 11.7334 22.8666 11.7334 19.7866V12.5466C11.7334 9.74659 12.3734 8.85324 14.8401 8.69324C15.0934 8.69324 15.3601 8.67993 15.6534 8.67993H25.4134C28.5467 8.69326 29.3334 9.4666 29.3334 12.5599Z" stroke="#2672E7" stroke-width="1.5" stroke-linecap="round" stroke-linejoin="round"/>
    <path d="M15.0933 20.3467H16.8666" stroke="#2672E7" stroke-width="1.5" stroke-miterlimit="10" stroke-linecap="round" stroke-linejoin="round"/>
    <path d="M19.6665 20.3467H24.0265" stroke="#2672E7" stroke-width="1.5" stroke-miterlimit="10" stroke-linecap="round" stroke-linejoin="round"/>
</svg>
